<svg width="838" height="1140" viewBox="0 0 838 1140" fill="none" xmlns="http://www.w3.org/2000/svg">
<g clip-path="url(#clip0_1_1430)">
<path d="M194.9 954H198.3C206.8 959.1 216.5 961.9 226.2 964.5L228.4 967.2C233.9 966.7 238.8 967.6 244.2 968.9C248.7 968.9 252.4 969.9 255.4 972L259.9 970.1C269.1 971.2 278 970.7 286.8 968.8L289.5 970C292.5 969.2 295.5 968.1 298.2 966.7C299.9 966.3 300 967.3 298.5 969.9C290.5 1027.1 285.4 1082.3 285.4 1139.9H219.5C218.9 1139.2 218.3 1138.5 217.9 1137.8C217.5 1137.1 217.1 1136.3 217 1135.6C214.4 1113.3 215.4 1090.5 221.4 1068.8L243.5 992.9L238.4 991C235.5 990.8 233.1 990.1 231.2 989C231 998 227.9 1007.3 224.9 1015.8C221.9 1024.3 204.7 1062.8 202.2 1063.8C199.7 1064.8 198.4 1065 198 1062.3C204.4 1036.5 211.6 1011 219.4 985.8C215.4 983 210.2 980.4 205.9 983.5L203.7 982.9C201.6 989.1 190.7 1012.1 185 1013.4C179.3 1014.7 182.2 1012.9 181.3 1011C180.4 1009.1 188.7 989.5 189.9 986.8L192.3 986.1L191 983.8C192.4 979.7 194.2 975.9 196.2 972.5C185.2 968.5 175.8 958.1 170.7 948C170.9 946.6 171.5 944.3 172.6 943.3C172.8 941.7 173.8 939.9 175.5 940C177.2 940.1 192.6 949.9 194.5 951.4L195 954.1L194.9 954Z" fill="#6F4827"/>
<path d="M219.4 1140H213.8C213.1 1139.4 212.5 1138.7 212 1138C211.5 1137.3 211 1136.6 210.9 1135.8C207.4 1118.2 204.1 1099 206.1 1081.5C197.5 1098.3 191.7 1116.5 187.4 1134.9L184.3 1140H78.3999C78.3999 1139.2 78.3999 1138.4 78.6999 1137.7C78.9999 1137 79.0999 1136.3 79.4999 1135.8C85.8999 1128.8 93.1999 1122.5 100.7 1116.8C121.5 1102.1 140.2 1088 154.7 1066.8C158.6 1061.1 163.9 1052.8 165.5 1046.2C167.1 1039.6 162.8 1041.3 162.5 1041.3C152.7 1044.4 148.7 1043 150.5 1037.1L150.3 1033.6C156.8 1022.3 162.3 1010.5 166.7 998.2L165.7 996C167.7 993.5 170 991.2 172.5 989.3C171.7 979.1 179.8 976.5 186.9 983C189.8 983.3 191.6 984.3 192.2 986.1L182.8 1012.6C194.8 1003.1 198.3 989.2 204.5 976.2C207.4 978 204 979.4 205.5 982.5C207.9 976.4 222.3 984 221.7 986L204.4 1043.7C202.3 1050.6 200.8 1057 199.7 1064.4L211.7 1041.1C220.4 1024.1 227.1 1007.2 230.1 988.1C236.2 988.3 241.1 989.5 246 991.9L224.1 1067.2C217 1091.7 216.5 1115.6 219.7 1140.1L219.4 1140Z" fill="#815B37"/>
<path d="M192.1 986C180.4 985.6 182.8 976.8 175.1 983.5C167.4 990.2 175.1 989.2 173.9 990.4C170.8 993.4 168.4 995 166.5 998.1C163.5 1006.5 159.3 1016.6 151.3 1020.9C149.7 1023 148.4 1021.9 147.3 1019.8L111.5 1080L116 1075.8C119.3 1073.7 125.6 1071.9 125.5 1077.1C126.8 1080.2 126.6 1083.9 125.1 1088.1L131.6 1073.2L134.6 1071.2C138.1 1068.6 139.7 1063.2 138.5 1059.1C136.4 1057 136.7 1053.9 139.4 1049.9L148 1037.4L150.5 1037.1C151.1 1038.1 151.2 1039.2 151.9 1041.3C154.9 1039.8 159.1 1041.1 161.9 1039.3C164.7 1037.5 162.8 1034.3 165.1 1034.2C167.4 1034.1 171 1031.7 171.4 1034.8C171.8 1037.9 167 1039.5 164.3 1041.1C164.9 1043.2 168.1 1044.6 167.4 1046.9C163.4 1058.9 156.1 1068.7 148.2 1078.8C128.8 1103.5 99.2 1115.5 78.4 1140H55.5C79.1 1103.6 105.2 1068.8 126.8 1030.5C142.3 1003.1 154.6 974 170.6 947.9C173 947.7 173.7 949.6 175 951.6C180.6 960.3 188.4 967.1 197.6 971.7C196.1 977.4 193.7 981.5 192.1 986.1V986Z" fill="#91673A"/>
<path d="M213.8 1140H184.3C189.2 1116.1 197.1 1092.9 209.2 1070.8C208.4 1081.4 206.3 1090.4 207.7 1100.2C209.5 1113.8 210.8 1127 213.9 1140H213.8Z" fill="#6F4827"/>
<path d="M178.3 446L177.3 449.5C168.6 457.4 161.8 467.1 156.3 477.3C172 468.1 188.4 460.8 205.5 455.2C210.2 453.6 214.5 453.8 218.5 455.8C240.9 438.8 272.3 442.8 293 460.2C292.2 458.9 292.7 457.9 294 457C314.5 473.9 327.6 498 329.9 525.3C332.2 552.6 328.7 575.5 318 606.4C317.2 608.7 317.1 611 318.5 612.4C314 622.5 309.7 633.2 305.7 644.4L303.3 645C301 647.2 297.5 648.2 292.9 647.8C281.1 647.5 254.3 664.1 249.5 673.5C244.7 682.9 252.4 678.6 253.6 678.5C265.5 677.6 277.5 675.6 289 673.2C291.1 673.2 293.7 673.5 293.6 675.8C300.3 678.8 304.4 675.1 306.1 664.8L311.5 656C310.2 654 317.4 649.5 319.1 648.9C325 647 328 650.1 325.5 656.1C328.5 657.3 326.5 665.7 323.4 665.9C322.2 667.4 322.9 668.3 325.2 668.6L343.4 668.9C344.5 667 346.9 666.8 350.4 668.3C363.8 677.5 358.5 683.6 334.5 686.7L345.8 692.1C355.7 699.6 352.9 708.9 339.9 708.1C329.8 705.2 319.7 703 309.5 701.6C302.2 704.3 295 707.6 288 711.5L285.1 710.4C283.5 713.5 281.6 714.4 279.6 713C278 716.1 275.3 718.6 272.1 720L249 725C245 733.3 242.3 733 234.3 729.3C226.3 725.6 219 719.7 212.3 713.9C206.1 725.4 200.2 737.3 197.8 750.3C196.4 750.6 196.3 751.2 197.4 752.1L195.4 755.4L184.1 762.2C214.2 746.6 227.2 748.5 237.4 780.4L241.9 798.5C243.4 797.8 244.9 797.6 246.4 798.1C246.2 796.6 247 795.3 248.1 794.3C251.2 791.3 260.4 786.7 264.3 789.1C264.5 785.2 272.9 786.2 276 786.9C286.4 789.4 293.4 797.6 280.2 802.7C275.1 803.3 270 804.3 265 805.6C272.5 805.2 293.7 811.9 286.4 822.5C279.1 833.1 284.4 825.1 282.1 824L278.4 825.7C261.3 821.9 251.5 827.4 237.1 836C233.9 837.4 230.7 837.8 227.4 837C226.9 838.9 226.4 839.7 224.2 839.1C215.7 831.4 211.6 821.5 207.4 810.6C184.8 825.7 190.8 859.2 203 879.5L203.2 884.1C207 886.8 210.3 890.5 213 895.3L229.2 912.1C234 915.2 237.5 918.8 239.5 923.1C241.2 920.6 243.6 922.8 242.4 925.3C243.6 926.3 243.9 927 243.2 927.5C249.6 930.1 251.3 932.9 248.2 935.9C251.8 939 248.1 947.7 246.3 951.8C243.1 959.3 237.6 969.8 228.1 967.2C216.4 964 204.6 961 194.7 954L195.6 951.1C206.4 944.8 225.8 923.2 212 912.5C203.7 926.7 190.1 934.9 175.2 940.7L172.4 940.1C162.3 934.6 154.3 925.6 147.1 916.9L148.3 914.2C163.2 908 179.1 900.4 184.3 883.8C169.1 890.3 153.3 894.7 136.7 896.5C120.1 898.3 135.2 896.3 134.4 896C133.6 895.7 132.8 895.3 132.1 894.8C129.4 892.5 124.8 886.4 127 882.9C122.5 876.5 119.1 869.3 117 861.3L118.4 859.3L121.2 857.3C134.2 857.2 147.5 855.3 159.2 849.3C161.1 848.3 167.9 844.5 168.3 843.4C168.7 842.3 168.1 842.9 167.6 842.8C156.3 842 116.8 838.6 110.5 830.8C104.2 823 109.6 829.5 109.3 828.8L106.9 826.6C102.9 804.6 100.3 782.2 99.2999 759.6L100.1 743.7C99.7999 739.4 100.8 736.2 103.2 734L105.8 732.8C125.4 739 146.1 745.4 166.9 742.6C148 731.8 129.8 720 112.3 707.2L110.2 704.1L109.4 700.9C112.2 692.8 115.4 684.9 119 677.3C118.4 674.5 118.2 671.7 118.5 669L132.5 649.1C133.7 647.5 134.9 647.4 136.2 649L137.4 651L126 672.1C139.5 683.7 155.2 693.2 173 696.3L149.5 668.9L136.2 648.2C132.7 646.9 135.5 641.7 137.1 639.2C138.7 636.7 143.4 630.8 146.1 632.4L149.6 631.9C190.9 647.8 239.3 642.5 274.4 614.8C235.3 631.5 192.8 632.7 151.3 625.6C149.5 626.3 148 626.2 146.9 625.3C147 624.8 146.9 622.7 145.7 622.6C136.2 621.2 109.6 610.7 103.1 602.3C97.3999 597.2 89.6999 590.2 90.2999 582.2C135 597.6 190.6 597.2 236.4 586.4C257.9 581.3 277.1 571.6 289.9 553.7C292.8 553.4 295.3 555 297.1 558.4C298.6 553.7 293.1 549 288.3 548.8C283.5 548.6 278.9 548.9 277.8 551.3C280.2 551.5 281.7 552.4 282.4 553.9C266.4 570.7 244.8 577.7 222.5 581.5C186.7 587.6 144 587 108.5 579.8L105.9 580C102.4 582.6 92.9999 578.6 89.2999 576.3C85.5999 574 85.2999 572.2 87.2999 573.1C89.2999 574 86.9999 574.3 85.8999 574.3C80.0999 563.5 86.8999 536 90.9999 524.4C90.7999 520.9 91.4999 518.6 93.1999 517.6V514.9C97.6999 508.8 101.5 502.1 104.4 494.9L107.1 494.2C104.7 492.1 109.4 486.6 112 487.5L120.3 477.3H121.7C123.8 473.1 119.8 471.1 109.8 471.1C109.4 470.8 109.1 470.4 109.2 470C110.1 461.9 130.6 451.9 138.9 453.6C148.4 454.3 157.4 454.7 165.3 448.2V449.9C166 447.4 171.3 445.1 174 444C178.5 442.1 183.4 441.7 177.9 446.3L178.3 446Z" fill="#ECBC0C"/>
<path d="M552.6 1.2C552.6 2.5 552.6 3.9 552.6 5.2C552.6 6.5 552.4 7.8 552 9C536.4 56.4 521.8 100.5 504.1 148.1C485.9 186.8 471.3 226.4 470.4 269.7L468.3 275.1C466.7 276.3 465.1 276.7 463.5 276.1L461.7 272.9C463 254.2 464.7 235.5 466.6 216.6L465.8 216.8C464.1 216.1 462.5 215 460.8 213.5C458.2 212.1 456.3 212.1 455 213.5C455.3 229.8 447.7 230 445.4 212.8C445.2 192.5 447.3 172.3 451.5 152.1C450 151.8 448.5 151.7 447 151.9C446.4 157.7 445 163 443.1 168C441.1 168.2 440.5 166.5 441.4 163L465.8 40.3L475.1 1L552.6 1.3V1.2Z" fill="#7B5631"/>
<path d="M381.4 132C381.9 133.1 382.5 135.8 383.6 136.8C388.9 141.6 391.3 148 395.3 153.3C399.3 158.6 401.2 159.9 403.3 164C406 167.6 409.1 171 412.5 174.1C417.7 175.9 420.6 181.3 424.4 185C425.2 187.5 427.7 190.2 430.4 191L435.7 194.4L441.4 163C441.7 164.3 440.5 166.2 442.3 167.2C443.7 158.9 444.8 151.5 446.9 144C448.2 146.2 447.1 148.5 448.2 149.4C449.3 150.3 453.5 149.7 454.1 151C451.6 171 441.5 206.3 450.9 224.6C455.2 220.4 450.9 216.1 453.4 212.4C455.9 208.7 458.1 210.7 460.6 211.4C463.1 212.1 466.1 214.1 465.8 216.9C465.5 227.4 464.4 238.1 462.4 249.2L460.2 250.3L459 253.5C452.8 252.2 450.1 247.2 451 238.4L449.2 239.1C449.7 259.7 444.4 279 431.4 294.7C431.6 295.4 432.9 295.5 433.6 295.4C442.7 294.2 446.4 270.1 447.4 262.4L449.5 261.4C452.6 258.5 459.1 261.4 457.7 266.2C460.1 268 459.6 277.4 456.4 278.1C455.3 281.8 453.9 285.2 452.3 288.4C454 290.4 454.3 293.2 453.1 296.9L453.5 299.2L455.4 300.2L446 365.6C454.3 337.4 459.6 308.6 461.9 279.2L463.4 276.2C464.3 275.4 464.8 273.9 466.1 273.2C467.4 272.5 467.6 274.6 468.3 275.2C471.3 275.2 471.1 279.7 468.3 280.3C471.2 281.5 470.1 288.9 467.4 290.2C466 293.7 465.7 297.5 466.4 301.2C466.9 302.2 467.3 303.3 467.6 304.4C467.9 305.5 468.1 306.5 468.1 307.5C467.5 318.8 465.7 330.1 464 341.3C459.6 368.9 453.6 398.4 447.8 424.8L445.6 425.8C446.8 426.8 447 428.2 446.8 429.7C443.1 440.9 439.7 452.2 438.2 464C438.9 461.6 439.8 459.6 442.5 459.2C443.8 454.7 444.7 453.8 445.2 456.4C445.9 458.5 446.5 460.7 446.3 462.9C445.2 472.9 443.3 484.8 438.3 493.3C436 495.4 435.1 498.7 435.6 503.2C438.4 504.7 438.8 509.4 435.5 510.4L435.8 515.7C435.8 518.4 434.7 520.6 432.5 522.3C432.7 523.4 432.9 524.4 433 525.5C433.1 526.6 433 527.5 432.8 528.5C429.2 542.3 425.4 557.1 420.5 570.5C415.6 583.9 419.5 572.2 418.9 573C418.3 573.8 417.4 574.6 416.6 575.3C418.9 577.9 415.5 584.8 412.3 585.4C410.6 586.9 409.9 586.1 410.5 583.2C407.7 582.1 408.5 578 411.5 578.4C413 575.6 413 573.7 411.3 572.6L411 570.5C404.2 571 401.3 569.6 402.3 566.5L402.9 562.2C415.5 543.8 420.9 522.3 422.3 500.3C423.1 487.3 423.4 471.9 423.3 458.9C423.3 455.8 423.3 455.9 422.6 458.5L420.5 459.2C414.3 460.6 410.3 463.8 408.7 468.7L406.6 469.5C405.2 470.6 404.4 470.4 403.3 469.3C401.9 470.1 400.6 470.2 399.4 469.3C396.6 468 396.6 465.1 399.6 460.6L405.2 452.4C405.2 452.4 407.8 431.7 413.1 390.2C412.7 388.5 411.6 387.1 409.8 385.7C410.2 376.7 409.8 367.8 408.8 359.2C410.4 352.5 411.3 345.9 411.5 339.3C413.4 331.5 413.4 322.9 416.5 315.3L418.3 316.7L416.8 327.4L423 319.2C423.3 311.7 424 304.3 425 296.9C423.5 293.7 422.6 290.6 422.3 287.4L423.6 286.3C424.6 281.1 426.9 278.9 430.6 279.7C431 276.9 432.1 274.4 434 272.3L437.7 271.3C437 269.7 437.3 267.6 438.8 265.1C438.3 245.6 428 225.1 414.8 210.6C410.6 207.5 407.5 204.1 405.6 200.2C401.5 199.7 397.6 198.4 393.6 196.1C389.3 195.1 385.2 193.9 381.2 192.5C380.9 185.5 389.8 184.4 395.2 186C391.3 177 386.1 168.3 379.7 160.2C375.1 154.1 373 147.7 373.2 141.1C377.1 138.2 378.5 135.5 377.4 133.1C378.2 130.9 379.5 130.7 381.4 132.5V132Z" fill="#7E5733"/>
<path d="M505.4 258C506.6 259.2 507.1 260.7 505.4 261.8C500.5 265.1 498.4 253.8 498.9 250.2L493.6 262.7C491.1 267.1 488.5 269.9 484.9 264.5C480.7 266.3 480.1 269.5 483.2 274C483.3 277.8 480.9 279.5 477.8 281.1C474.7 282.7 468 285 468.4 280.1V275C468.4 255.2 471.5 235.3 476.3 215.4C480.9 196.2 488.5 178.8 496.6 160.8C507.7 135.9 515.9 111.5 524.4 85.7998L538.1 44.3998C543 29.5998 547.6 15.2998 552.8 1.09983C565.1 1.09983 577.3 0.0998268 590.2 1.19983L552.7 108.1L518.9 210.1C513.6 226.2 509.5 241.9 505.6 257.8L505.4 258Z" fill="#6A4223"/>
<path d="M310 847.6C315.8 847.8 324.5 849.6 327.2 855.1C332.3 859.1 336.3 865.4 340.3 870C353.8 891.8 353.9 917.3 338.3 938C331.3 950.9 319.3 959.1 305.5 965.2C291.7 971.3 299.1 967.7 298.3 970C298.3 969.6 298.8 969.2 298 967.6C295.4 970.2 291.8 969.1 289.3 970.1L289.6 967.7C299.2 965 305.3 959.9 307.9 952.5C307.8 949.2 304.5 941.8 305.4 947.9C301.9 952.4 292.1 953.3 286.4 953.4C284.5 943.7 272.7 936.8 263.6 938C264.2 940.5 263.8 942.2 262.5 943.1C261.3 945.8 249.7 939.3 248.8 938.2L248.4 935.9C248.8 927.8 239.1 930.6 242.5 925.3L244.6 924.4C262 933.7 290.8 937 304.9 920.6L307.5 920.2C313.6 912.7 319.3 899.2 314.9 889.7C310.5 880.2 314.1 889.2 313.4 889.2L311.6 887.8C308.8 865.3 271 866.5 269.1 889.7C267.6 907.6 295.8 908.8 292.2 895.8C288.6 882.8 286.3 892 288.9 897.7C286.4 905.9 277.1 903.8 273.3 897.5C264.7 883.4 283.5 871 298.2 877.5C312.9 884 314 897.5 308.4 911.1C300.9 929.1 275.5 930.8 260.6 921.2C245.7 911.6 245.6 906.1 244.6 893.1C243.6 880.1 245 892.5 245.5 892.1C245.5 889.1 244.8 886.6 243.5 884.8C244.2 868.6 253.2 857.4 267.2 849.7C281.2 842 298.7 839.6 307.9 845C317.1 850.4 309.6 846.6 310.1 847.7L310 847.6Z" fill="#E3B410"/>
<path d="M466.5 465.1L462.9 483.6L447.8 547.9C444.8 560.8 440.9 572.9 436.9 585C438.4 589.1 435.5 590 431.7 590.6C422.6 589.8 411.2 593.4 419.6 603.2C424.1 605.7 425.2 608.1 423 610.4C411.3 612.5 405 620.9 418.8 627L420.1 629.3C421.5 629.4 421.3 630.3 419.5 631.9C414.8 648.3 407.6 663.7 400.3 679.8L364.4 758.8C364.8 761.7 364.2 763.5 362.6 764.2C356.2 763.3 350.5 763.9 345.5 766C341.8 770.1 343.3 774 349.9 777.8L350.4 779.5C346.7 781.8 342.5 783.5 337.7 784.7C337.2 787.5 336.2 788.5 334.5 787.8C333.7 789.4 333.4 791.3 333.6 793.4C331.8 794.3 330.7 793.4 330.5 790.8C328.2 788.8 328.5 785.8 331.5 781.8L336.8 773.3C338.4 766 341.7 760 346.6 755.5C345.9 751.9 347.8 750.3 350.9 749.3C346.4 744.6 346.7 738.3 351.8 730.3L352.3 725.8C350.6 722.3 355.2 709.6 357.8 707.5C360.4 705.4 358.9 707 359.6 706.9C360.4 705 360.5 703.2 360.1 701.3C365.3 687.4 371.7 674.2 379.4 661.8C380.9 660.6 381.7 658.6 381.9 655.5C378.7 656.3 375.7 656.4 374.6 652.7C387.7 628.1 398.2 602.6 406.3 576.2C411.1 567.8 414.3 570.2 411.5 578C410.5 579.3 410.9 581.3 410.5 582.8C411.1 585.7 410.8 588.7 409.5 591.9H411.5C413.7 588.4 416.1 585.1 418.6 581.9L416.7 574.9C423.2 557.5 427.4 539.6 432.6 521.9C433.6 518.9 435 517.7 436.9 518.3C441.5 522.3 443.1 521.6 441.7 516.3C435.8 516.8 434.9 516.3 435.6 510C436.1 508 435.4 505 435.7 502.8C435.5 501.1 435.8 494 437 493.2C438.2 492.4 437.9 492.9 438.4 492.9C441.1 480.7 443.7 468.4 445.3 456C445.1 454 444.2 455 442.6 458.8C437 470.1 435.5 482.7 429 495C430.6 480.5 436.3 467.8 438.1 453.6C439.4 443.5 444 434.6 445.7 425.4C446.2 423.4 446.5 422.3 448.3 423.5C451.5 425.5 455 445.3 454.8 449.8L458.3 449.3C459.4 440.8 465.9 441.5 467.6 449.8L466.6 464.9L466.5 465.1Z" fill="#6B4324"/>
<path d="M556.5 253.9C557.5 256.2 556.2 257.8 552.6 258.8C542.7 261 541.8 263.3 549.9 265.9C553.9 268 555.4 270.4 554.4 273.1C529.5 291.1 506.9 311.7 484.2 332.8L471.3 436C470 446.3 468.9 455.8 466.5 465.2C466.4 465.8 467.4 443.5 461.7 445.7C456 447.9 461 451.9 458.6 451.6C456.2 451.3 453.2 453.2 452.3 451.6C454.5 449 447.3 419.2 445.6 425.8L450.1 401.8C456.5 368.2 465 335 466.5 301.2C465.8 297.6 465.9 293.6 467.5 290.2C467 287 468.4 283.5 468.4 280.3C469.6 283 480.3 279.4 481.2 275.8C482.1 272.2 478.8 270.2 479.1 268.1C479.5 264.8 487.5 262.7 485.2 258.5C484.6 257.5 480.6 258.3 480.4 257C479.3 250.2 486.8 257.4 491.2 251C494.5 259.5 483.9 260.6 487.4 264.9C490.9 269.2 495.2 247.7 501 245.2C501.4 251.7 500.3 257 504.1 261.4C505 260.1 504.6 258.5 505.5 258.2C515.9 255.3 525.2 248 535.5 243.2C538.6 241.8 539.7 242.8 537.7 245.8C522.2 254.2 514 265.2 512.8 282.8C520.6 269.3 535.3 257.1 548.6 249C561.9 240.9 557.4 249.2 556.6 254L556.5 253.9Z" fill="#6D4625"/>
<path d="M374.3 584.2C376.2 583.6 378.3 583.2 380.6 583.1C388.2 579.2 394.5 573.6 399.6 566.3H402.2C404.2 569.9 409.1 566.5 412.5 568.7C413.7 571.8 413.2 575.7 411.3 578.1C411.1 576.4 413.2 574.8 410.9 572.3C408 576.1 406.3 580.5 404.8 585.3C397.7 608.7 389 631.5 376.1 652.9C377.3 654.7 379.7 654 381.5 653.7C383.3 653.4 383 651.1 385.1 650.1C380.4 669.7 383.5 658.4 379 665.6C370.6 678.9 366.4 693.6 359.5 707L358.1 706.3C356.9 710.8 349.2 716.4 346.4 711.9L346.2 709.5C352.9 704.5 353.3 696.7 346 692C345.9 689.1 347.9 686.8 352.2 685.1C359.8 679.2 359.9 673.1 350.3 668.5C347 664.9 347 660.6 350.4 655.3C351.5 649.9 349 651.8 346.6 654.9C343.4 665.8 330.3 662 329.6 652.3C328.3 654.2 326.9 655.4 325.3 656C325.3 654.5 325.5 653 325 650.9C319.6 649.7 314.1 651.4 311.3 655.8C310.6 657.7 309.7 659.8 308.2 657.9C305.9 655.2 308.6 651.4 312.2 651.9C312.3 650 313.5 648.3 315.8 646.8C321.4 634.8 326.3 622.6 330.6 609.9L333.1 608.9C340 590.7 346.8 572.6 353 553.5L374.3 488C380.7 485.4 382 494.1 374.8 495.4C374 499.7 373.7 504.3 373.9 509.3C371.3 513.5 369.3 517.9 367.9 522.3C370.6 540.6 370.8 559.3 370.9 577.8C371.5 580.4 372.5 582.2 374.2 584L374.3 584.2Z" fill="#7A5435"/>
<path d="M399.2 469C399.9 469.6 400.6 470.4 400.2 471.2C396.8 473.1 385.2 507.5 389.5 506.8C393.8 506.1 405.1 478.1 404.1 471.5L406.3 469.2C406.9 458.9 421.4 456.3 420.2 458.9L421.9 461.4C418.7 490.4 412 528.3 398.8 554.4C395.4 561.2 382.8 582.3 376.4 584C370 585.7 374.9 584.3 374.1 584.3C372.6 584.3 370.5 584.9 370.4 583.3C370.3 581.7 368.9 579.8 368.9 578C368.6 559.9 368.8 542.1 366 524.3C363.2 506.5 369.4 514.9 371.4 510.7C373.4 506.5 369.8 495.7 374.2 493.8L377.7 492.3C378.4 492 377.5 489.3 374.3 488.3L403.3 377.1L404.7 377.3C405 371.1 406.3 365.4 408 359.4C409.7 353.4 407.2 362.7 406.4 362.5C406.7 354.5 409.4 346.7 411.3 339.1C416.5 347.9 406.9 352.7 411.8 371.7C413.1 376.6 409.5 381.5 412 386.3C415 382.2 410.9 376.5 417.7 374.7C412.4 400.6 409.6 426.5 406.8 452.6C404.4 458 398 462.7 399.1 469H399.2Z" fill="#91673D"/>
<path d="M267.4 410C285.8 410.5 290.7 438.4 292.2 451.2C290.3 450.8 288.6 451.7 287.1 453.8C266.2 441.5 238.2 440.2 218.6 455.8C216.1 457 214.9 460.6 211.7 460.4L215.4 456.1C199.2 455 165.8 474.9 151.2 482.1C158.4 468.8 166.8 455.1 178.3 445.9C179.8 445.2 180.2 443.9 179.8 442.2C201.4 423.3 238.3 406.1 267.3 410H267.4Z" fill="#D69F0C"/>
<path d="M381.4 132C381.2 134.2 379.5 131.4 379.3 132C378.9 132.9 380.6 135.5 380.2 136.2C378.7 138.6 375.3 139.6 374.8 142.1C373.5 147.9 386.3 167.3 392.1 174C397.9 180.7 395.3 184.5 400.2 188.7C392.8 187.3 387 184.6 382.2 191.4C392.2 192 399 195.5 405.5 199.9C405.9 201.6 404.7 202.6 401.8 202.8C402 207.1 400.9 209.9 398.6 211C395.8 209.8 393.7 207 390.4 206.1L341.2 193.1C328.7 189.8 317.4 184.7 305.6 179.9C293.8 175.1 300.1 175.2 299.8 172.5C299.5 169.8 301.8 164.6 304.4 165.2C313 168.2 380.3 185.7 381.9 183C383.5 180.3 381.8 179.9 380.9 178.4C364.9 150.3 352.3 121 341.5 90.1C343.3 85.7 352 74 356.1 77.4C360.2 80.8 358.5 79.1 358.9 80.6C364.3 98.9 373.3 115.1 381.2 132H381.4Z" fill="#7B5631"/>
<path d="M702.4 160C704.7 162.3 704.2 165.1 700.9 168.4C684.6 182.2 668 195.8 650.9 209.2C647.8 212.4 644.5 213.7 641.2 213.2C637.1 219.4 626.2 223.1 618.9 224.5C610.8 229.2 601.9 232.3 592.3 233.8C593.1 236.8 587.4 239.3 585.4 237C582.6 240 578.9 242.2 574.5 243.7L565.7 249.8C566.5 252.9 557.9 257.4 556.5 253.8C554.4 252.8 554.4 249.8 551.8 249C542.5 255.4 534.2 262.3 525.7 269.3C518.5 275.1 515.8 283.4 509.2 291.4C514.4 264.2 512.1 259.2 537.4 243.5C536.8 242.6 535.9 243.1 535.5 243L564.8 229.4L614.9 210.4C647.1 198.2 673.8 177.5 702.5 160H702.4Z" fill="#845B35"/>
<path d="M330.5 791C332.4 792.1 332.9 794.3 332 797.6C331.7 800.2 333 801.7 335.7 802.1C339.4 807.6 339.9 807 337.2 800.4L338.2 797.9C339.6 794.5 345.4 797.6 344.2 801C340.4 819.5 333.1 837.2 327.2 855.1C321.6 852.8 315.8 849.5 310 847.6C308.1 846.4 308.5 845.4 310.4 844.4L295.3 843C291.3 840.6 291.4 836.6 295.5 830.8C296.4 809.4 302.4 790.1 310.6 770.6C318.8 751.1 325.7 737.8 331.3 735.1C336.9 732.4 334.5 735.5 334.2 738.9C325.5 761.2 317.7 783.9 311 807.1C317.4 798.6 322.8 789.3 327.2 779.2L350 726.3L352.3 726C352.6 727.5 353.1 728.8 354.5 730.5C351.2 730.2 348.4 742.3 350 745.9C351.6 749.5 354.7 748.5 357 750.3C359.3 752.1 358.3 754.8 357.8 756C357.3 757.2 355 757.8 353.8 755.6C352.6 753.4 353.6 752.5 352.6 751.5C351.6 750.5 350.2 752.2 349.2 752.5C348.2 752.8 348.3 754.6 349.4 756.4C341.1 760.2 341.5 769.7 337.9 775.8C334.3 781.9 329.9 786.8 330.6 791H330.5Z" fill="#684527"/>
<path d="M146.4 632.2C141.5 635.9 136.7 641.9 136.6 648.1C137.5 648.3 137.5 648.6 136.6 649C134 648.1 125.2 665.3 121 669.1C119.5 671.6 122.4 675.7 121 678.5C116.3 687 114.1 695.8 110.5 704.1C111 708.2 110.3 712.6 108.4 717.2L105.9 731.5L103.5 734.1C101.4 748.3 100.8 769.2 102.9 784L109.5 828.8L107.5 830.1C102.3 826.7 101.3 828.3 104.5 834.7C113.6 830.1 118.8 850.6 120 857.2L118.6 859.3L127.2 882.9L125.7 883.7C123.3 881.8 121.2 879.2 119.3 875.9C92.3998 828.5 80.9998 764.1 95.3998 710.2C109.8 656.3 118.9 653.7 144.1 629.2C146.4 629.2 147 629.8 146.3 632.1L146.4 632.2Z" fill="#E3C02B"/>
<path d="M357.2 140.9C357.5 143.3 356.1 143.5 354 143C345.2 140.5 336.4 138.2 327.6 136.2C337.2 141.2 347.2 145.4 357.5 148.9L358.4 151C333.8 160.3 307.4 151.7 290.6 131.7C273.8 111.7 282.1 125 279.7 118C305.7 107.3 346.5 111.6 357.2 140.9Z" fill="#93C961"/>
<path d="M626.3 199L624.3 198L625.9 166.5C622.9 177 620.6 187.6 619 198.4L616.4 202C597.6 172.1 607.9 145 632.9 123.2C652.2 149.2 650.2 179.7 626.4 199H626.3Z" fill="#96CB61"/>
<path d="M405.4 199.9C424.7 212.9 436.2 236.4 440.8 259.8C441.5 263.5 439.8 268.8 437.5 271C434.8 272.1 432.1 273 429.3 273.7C427.3 277.8 425.3 281.9 423.4 286.1C423.4 289.2 426.5 293.2 426.8 296.7C424.4 304 426.7 312.1 424.6 319.8C420.1 325.2 417.8 329.6 413.5 334.8L416.4 315C418.1 303.3 419.5 290.7 422.4 279C425.3 267.3 423.1 266.5 420.2 259.3C413.5 242.7 408 225.9 398.6 211L400 202.4C400.3 200.2 403.9 200.5 405.5 199.9H405.4Z" fill="#6D4625"/>
<path d="M554.3 273C548.3 264.5 543.1 266.7 542.4 263.3C541.1 257.5 553.1 258.7 556.5 253.9C559.9 253.6 562.6 251.2 565.7 249.9C569.6 246.5 574.3 244.2 579.7 242.9C581.5 240.8 583.4 238.9 585.4 237.1C587.5 236.4 590.3 234.7 592.3 233.9C595.3 233.6 598.3 232.7 601.3 231.3C606.4 231.3 611.5 230.9 616.6 230.1C617 227.9 617.8 226 618.9 224.4C628.8 228.1 636.2 221.2 641.2 213.2C650.2 208.3 657.6 201.1 665.9 194.5L693.7 172.4C697.9 169.1 702.4 165.1 702.4 160C706.3 160.9 711.5 170.1 708.8 174.3C689.8 190.2 670 204.7 649.4 217.6C639.6 223.8 630.2 228.3 620.1 233.7C597.4 246 575 258 554.3 272.9V273Z" fill="#6C4526"/>
<path d="M146.4 632.2C145.2 631.6 144.2 630.7 144.2 629.3C145.3 628.3 145.8 625.9 147.2 625C148.6 624.1 150 623.1 152 623.4C173.8 626.3 195.2 629.1 217 626.8C238.8 624.5 262.9 618.9 284.7 607.4C275.9 617.9 264.5 624.9 252 630.7C228.1 641.8 203.3 645.2 177.5 640.9C166.4 639.1 156 637.2 146.3 632.2H146.4Z" fill="#D49911"/>
<path d="M341.4 268.6C341.2 237.1 354.3 213.4 389.1 210.2C392.6 238.2 369.1 261.7 341.4 268.6Z" fill="#72A768"/>
<path d="M297.5 558C295.7 554.8 293.4 553.2 290.5 553.2C276.6 572.3 256.9 581.2 234.6 586.6C192.7 596.7 131.5 597 91.1001 582.4C87.1507 577 88.4001 579.9 87.6001 578.2C87.2001 577.1 86.4001 575.2 86.4001 574.1C86.4001 573.5 86.0001 572.9 86.9001 571.7C92.8001 576.5 99.6001 578 106.4 579.9L109 579.7C144.7 586.9 187.2 587.5 223.2 581.4C259.2 575.3 268.1 570.3 283.3 553C281.7 552.7 280.1 552.1 278.3 551.1C277.6 550.6 276.3 551.1 275.5 549.9C280.3 547.1 286.9 545.5 292.5 547.2C298.1 548.9 299.5 554.7 299.9 558.9C298.4 558.9 298.1 558.3 297.6 558.1L297.5 558Z" fill="#1A1609"/>
<path d="M388.3 134.8L389.4 130.9C405.2 114.9 417.8 97.2 427.3 78C428.5 78.7 428.5 78.3 427.3 77C432 75 436.3 72.4 443 72C441 104.7 423 133 388.2 134.8H388.3Z" fill="#97CC63"/>
<path d="M666.4 262.3C669.8 265.4 675.2 266.4 675.7 272C667.9 275.2 660.5 278.6 652.3 280C631.2 283.6 606.9 275 597.4 256.1L600.4 254.5C617.3 258.5 634.4 261 651.6 262.1L663.5 261L666.5 262.1L666.4 262.3Z" fill="#99CC69"/>
<path d="M435.4 624C432.7 628.7 425.7 629.9 420.6 630.3C415.5 630.7 420.2 629.9 419.9 629.3C413.9 628.5 407.2 622.8 409.2 616.6C411.1 610.6 417.8 610.2 423.1 608.1C417.8 605.1 413.8 601.3 414.7 596.4C417.1 583.6 434 593.1 436.8 584.9C437.2 587.5 440.4 589.2 442 590.9C448.5 597.6 441.4 602.9 438.5 608.6C436.3 612.9 441.3 621.4 435.4 623.9V624Z" fill="#EDBA0A"/>
<path d="M147.4 916.9C142.8 911.3 136.2 906.2 133.4 899C132.1 897.4 131.7 896 132.4 894.8C151.4 893.5 169.4 888.7 187.7 879.7C182.8 902 165.4 909 147.4 916.8V916.9Z" fill="#D69B08"/>
<path d="M388.3 134.8C378.3 109.8 403.8 84.4999 427.3 76.9999C435.6 73.1999 415.1 103.2 413.9 104.6C405.2 114.9 397.7 126 388.3 134.8Z" fill="#739F5E"/>
<path d="M344.2 801C342.7 799.8 340.5 798.1 338.2 797.9C337.5 798.2 336.5 798.6 336 798.2C331.8 794.6 332.4 792.5 334.5 787.9C337.5 784.7 328.9 784 349.2 779.4C345.7 776.7 340.7 774.6 341.4 769.9C343.4 757.7 361 763.5 362.1 762.4C363.2 761.3 363.8 760.2 364.4 758.9C363.8 761.6 366.5 763.2 367.9 765.5C372.1 772.2 368.2 779.6 361.2 783C363 789.2 361.5 795.6 355.9 798.5C350.3 801.4 347.8 800.9 344.3 801H344.2Z" fill="#ECBB13"/>
<path d="M194.9 954C188.7 949.7 181 947 175 941.2C169 935.4 173.1 942.7 172.6 943.2C172.6 942.2 172.6 941.2 172.7 940.2C189.7 931.7 200.9 928.4 211.2 909.8C216.5 912 220 917.1 219 922.9C216.4 936.9 206.7 947.1 195 954H194.9Z" fill="#D39C0A"/>
<path d="M666.4 262.3C645.6 268.1 618.8 259.3 597.4 256.2C596.1 254.9 596.2 253.9 596.7 253C597.2 252.1 598.6 252 599.6 251.4C623.8 237.3 647.6 245.2 666.4 262.2V262.3Z" fill="#6F9F66"/>
<path d="M267.4 410C235.9 409.2 203.1 426.1 178.4 446C186.4 439.2 162.9 451.9 166 449.3C148.7 463.9 130.9 442.6 110.5 469.6L121.7 472C123.3 472.3 124.4 473.1 124.4 474.6C124.4 476.1 123.1 476.3 122.2 477.2L119.2 473.8L115.8 473.1C107.3 473.7 105.5 471.4 110.4 466.2C118.4 455.2 132.4 450.7 146.3 452.3C153.1 453.1 157.8 451.5 163.1 448.1C168.4 444.7 171.5 444.3 175 440.9C197.4 418.9 237.6 402.2 267.4 410.3V410Z" fill="#E8C42F"/>
<path d="M333.2 609.1L320.4 643.1C318.8 647.3 316.1 650.4 312.3 652L305.2 654.7L303.4 653C303.4 655.3 302 655.8 300.5 654.1C299 652.4 300.4 644.9 303.3 645.1L315 614.5C315.5 613.3 317.6 612.8 318.5 612.5C321.6 611.5 328.7 608.2 333.3 609.1H333.2Z" fill="#D09410"/>
<path d="M112.4 487.2C111.3 489.7 108.8 491.7 107.5 493.9L105.3 494.5C91.7998 484.9 78.3998 507.3 93.1998 515L93.5998 517.3C93.9998 519.7 92.1998 521.9 91.3998 524.1C92.1998 520.3 89.7998 518.3 87.5998 515.8C78.5998 505 82.3998 490.1 92.4998 481.2C102.6 472.3 103.5 475.1 107.3 470.1C107.5 470.8 107.7 471.5 108 472.2L118.4 473.5L121.2 476L112.3 487.3L112.4 487.2Z" fill="#FAFBF8"/>
<path d="M297.5 558C295 557.2 294.2 553.8 291.9 554.1C283.6 555.1 280.8 594 164.4 594.2C139.1 594.2 115.4 592.5 91.1001 583C93.4001 591.8 99.1001 596.4 103.5 602C95.5001 597.7 88.2001 587.1 87.6001 578.1C108.2 591 149.6 593.5 173.8 592.5C211.4 590.9 267.5 587.5 289.8 552.1C292.9 551.2 297.3 555.2 297.5 558Z" fill="#DCC55F"/>
<path d="M292.2 451.2C292.5 453.5 294 455.2 294 457L299.1 471.2C293.3 458 270 447.8 257.4 447.1C243.5 446.2 230.3 450.1 218.5 455.9C229.9 438.8 269.4 438.4 286.9 452.4C287.7 450.2 288.7 449 290 448.3C291.8 447.3 291.3 450.3 292.2 451.2Z" fill="#A67A0B"/>
<path d="M626.3 199C623.5 201.3 619.1 207.1 616.4 202C619.2 185.5 621.9 168.9 628.7 152.1L626.4 199H626.3Z" fill="#699D55"/>
<path d="M357.2 140.9C358.3 143.8 361.7 145.5 361.3 149.1C360.9 152.7 359.5 151 358.4 151C354.2 151.6 323.7 136.8 323.6 136.4C321.6 128.6 353.8 143.4 357.3 140.9H357.2Z" fill="#71A859"/>
<path d="M338.4 938C354.4 908.4 351.7 902.1 340.4 870C353.3 884.8 354.4 906.6 346.4 925.1C338.4 943.6 342.7 935.3 338.4 938Z" fill="#CEB560"/>
<path d="M127.2 883C128.7 887.1 131 890.8 132.3 894.9C133.6 899 132.9 897.8 133.3 899.1C127.5 892.4 122.6 884.3 119.3 876.1C122.6 877.7 123.5 882 127.1 883.1L127.2 883Z" fill="#E0CB5A"/>
<path d="M122.1 477C118.8 480.3 116.1 484.2 112.4 487.1C114.2 483.2 116.8 479.9 120.3 475.8C116.6 471.2 104.9 475.5 107.3 469.9C106.8 467.6 109.4 467.2 110.3 465.9L108 471.5C112 473.2 123.6 469.8 122.1 477Z" fill="#EBDA81"/>
<path d="M403.4 377C404.6 372.3 403.6 366.7 406.5 362.4C409.4 358.1 406.8 359.8 408.3 358.9L406.2 377.7C406.1 378.7 404.9 378.7 404.4 379.5C402.9 381.7 403.7 377.2 403.4 377Z" fill="#7E5733"/>
<path d="M412.4 174.1C408.5 172.7 404 167.9 403.2 164C405.1 167.6 412.2 169.2 412.4 174.1Z" fill="#7B5631"/>
<path d="M419.4 632C419.6 631.2 419.4 630.1 420 629.4C425.7 630.1 431.4 627.6 435.4 624C434.7 631 421.5 629.3 419.4 632Z" fill="#ECE6BC"/>
<path d="M424.4 185C426.2 186.7 428.6 189.8 430.4 191C426.8 192 425.6 186.6 422.2 185.6C423.3 184.4 423.9 185 424.4 185Z" fill="#7B5631"/>
<path d="M289.3 970.1C278.4 974.2 266.6 972.3 255.3 972.1V969.6C262.2 963.5 262.4 953.5 260.8 945.1L262.4 943.1C262 941.4 260.4 937.7 262.4 936.4C267.6 933.3 272.9 937.9 277.4 939.8C281.9 941.7 286.2 945.3 287.1 952.2L303.4 948.4C302.8 946.1 302.6 941.9 305 942.5C308.1 944.2 310.7 951.8 309.4 955.2C305.8 964.4 296.6 966.1 289.2 970.2L289.3 970.1Z" fill="#ECBC0C"/>
<path d="M262.4 943C264.7 953.5 264.3 965.5 255.3 972C245.9 971.8 237.4 969.6 228.3 967.2C239.5 967.4 247.8 947.2 248.3 935.8L262.4 943Z" fill="#D39A0D"/>
<path d="M150.4 1037.1C146.1 1044.4 139.2 1050.3 138.4 1059.1C139.5 1062.8 138.1 1069.2 134.5 1071.2C130.8 1080.4 127.3 1089.7 121.5 1098.3C122.1 1090.5 123.8 1083.8 125.5 1077.1C125.2 1076.2 124.9 1075.3 124.8 1074.4C124.1 1068.8 131.2 1053.1 134 1047C136.8 1040.9 144.2 1025.3 148.9 1022.2C153.6 1019.1 150.5 1021.3 151.4 1020.9C156.6 1013.4 162.1 1006.1 166.6 998.1C164.8 1012.1 157.6 1024.8 150.4 1037.1Z" fill="#664424"/>
<path d="M151.3 1020.9C139.2 1038.3 130.6 1056.6 125.4 1077.1C116.3 1071.2 112.9 1086.5 107.3 1083L120.5 1060.3C123.8 1054.7 150.2 1013 149.7 1009.4C149.2 1005.8 153.6 1003.9 154.8 1006.1C159 1013.7 143.5 1017.4 151.2 1020.8L151.3 1020.9Z" fill="#815B37"/>
<path d="M134.5 1071.1C135.8 1068 138.1 1062.2 138.4 1059C141.2 1060.4 139.4 1063.9 139.3 1066.3C139.2 1068.7 137.2 1070.9 134.5 1071.1Z" fill="#815B37"/>
<path d="M359.5 707.1C356.4 713.1 354.8 719.8 352.3 725.9L337.7 760.4C329.1 780.7 320.1 800.8 305.5 818.5C311.4 800.6 315 783.7 321.5 767C325.6 756.4 330.4 747.2 333.1 735.2C324.6 745 319.4 756.8 313.5 769.1C304.4 788.2 299 808.8 297.6 830.5C296.2 852.2 293.1 836.3 294.6 840.9C302.2 841.4 310.1 841.4 317.1 844.1C322.5 851.1 308.8 843.8 310.1 847.5C290.3 841.2 269.8 846.1 254.8 861.5C239.8 876.9 244.9 881.2 245.5 891.9H244.5C247.2 902.9 246.7 911.1 242.1 921.8L239.7 922.9C225.9 912.4 211.7 899.4 203.5 883.9L202.9 879.6C208.9 866.4 215.2 853.6 222 841.2L224.4 840.9L226.8 842.5C227.4 845.5 228.6 847.9 230.3 849.9C231.9 847.7 246.9 836.2 248.1 836.3C249.3 836.4 250.9 836.5 251.4 836.9C251.9 837.3 251.8 838.2 251.6 839.3C244 856.4 237 874.1 232.2 892.1C239 876.9 245 861.4 250.3 845.5C252.2 837.3 256 832.3 261.8 830.4C269.2 829.1 275.8 827.1 282.5 823.9C284.9 822.5 286.2 820.3 285.8 817.6C284.4 808.3 266.9 808.2 259.4 806.7C266.5 799.8 284 803.2 285.4 797.3C286.8 791.4 274 786.5 264.6 789C259.8 789.4 256.4 782.8 254.5 778.9C261.8 765.9 268.4 752.7 274.5 739.2C278.8 731.4 286.2 726.8 294.4 723.9C294.9 720.3 298.9 717.8 302.1 719.9C305.3 722 302.1 732.4 300.4 736.3C299.3 737 281.1 776.9 284.2 774.5C289.1 770.8 303.4 744.4 306.7 737.4C311.3 727.6 313.7 718.3 316.3 707.9C325.4 709.5 334.5 710.2 343.7 710L346.6 711.8C352.5 711.4 357 709.1 358 701.2C361 702.9 359.4 705.1 359.7 707L359.5 707.1Z" fill="#7F5835"/>
<path d="M281.4 497.8C289.1 533.6 232.7 549.3 214.7 522.8C213.4 520.8 212 517.8 215.1 518L217.5 517.5C246.7 533 244.9 481.1 217.2 498.2C215.8 500.6 214.2 501.9 212.4 502C210.8 502.5 210.5 501.1 211.3 497.7C215.2 485.3 223.5 477 234 473.3C246.9 468.8 258.2 472.1 269.7 479.3C275.4 482.9 279.6 490.8 281.5 497.8H281.4Z" fill="#FCFDFA"/>
<path d="M279.7 713L281 715.9C277.5 723 274.5 730.4 272.2 737.9C274.3 740.7 270.4 746.3 267.1 745.8C263.4 755.4 253.6 775.5 244.5 780C242.2 781.2 241.4 780.7 239.9 778.7C234.9 756.9 223.1 745.4 199.8 753.1L197.4 752C196.4 752.3 195.7 752.5 195.4 751.3C195.1 750.1 195.8 750.2 196 749.4C198.7 735.5 204.8 723.2 211.9 711.1C221.3 719 230.2 726.3 241.6 730.2C244.1 730.4 246.6 725.6 248 723.5L271.4 718.2L279.7 713Z" fill="#EECC2D"/>
<path d="M346.4 711.9C336.8 712.6 327.3 712.3 317 709.2C315.4 725 309.3 737.5 301.8 750.3C294.3 763.1 290.5 771.2 281.6 780.2C281.8 759.2 298.7 742.6 300.6 727.3C302.5 712 303 725 301.9 723C300.8 721 300.5 721.3 298.2 721.3C295.9 721.3 296.3 725.5 295.1 725.9C284.7 729.1 277 735.3 273.5 745.9C270 756.5 260.6 766.7 255.6 778.7C259.1 782.7 261.1 786.2 264.4 788.9C257.9 790.6 251.7 793.5 246.5 797.9C243.9 798.4 243.6 797.6 245.6 795.9C244.9 791.7 247.1 782.7 251.4 782.1L250 780.4C256 769 261.7 757.4 267 745.7C268.7 743.1 270.8 740.6 272.1 737.8C274.9 728.5 278.9 717.7 285.1 710.4C292.2 708 298.5 703.3 305.8 700.3C317.7 695.4 347.3 715.1 350 701.3C351.5 693.6 335.1 691.2 329 685.5L348.7 681.7C351.3 681.2 357.1 678.5 356 675.4C354.2 669.9 347.4 669.9 343.2 668.9L324.5 668.5C322.6 668.2 321.9 667.4 323.2 665.9L325.3 656.1C326 652.8 328 649.2 331.6 649.9C331.4 653.3 331.6 657.2 334.5 658C337.4 658.8 340.5 661.8 342.5 658.2C344.5 654.6 347.7 647.9 351.5 650.7C355.3 653.5 348.5 661.2 349.8 664.5C351.8 669.4 360.3 671.8 359.5 677.8C358.7 683.8 352.6 687.4 346.9 690.6C351.6 693.8 352.8 697.4 352.6 702.3C352.4 707.2 350 709.5 346.3 712L346.4 711.9Z" fill="#6B4324"/>
<path d="M103.5 734.1C105 723.9 106.4 713.7 110.6 704.1C130.4 718.2 150.7 730.7 173.3 743.2C152.7 749.7 121.9 740.2 103.5 734.1Z" fill="#D89A0D"/>
<path d="M303.2 645C304.3 642.1 299.6 657 303.3 652.9C299.1 666.4 297.1 673.1 297.1 673.1C300 673 301.7 670.3 302.3 664.9C303.3 660.3 305.3 658 308.2 657.9C309.3 657.5 310.6 656.9 311.3 655.8C311.3 660.7 306.3 664.4 305.4 670C304.5 675.6 303.9 676.1 301.3 677.3C298.7 678.5 295.7 679.3 293.9 677.3C290.3 673.4 287.6 675.4 283.6 676.1C273.6 678 263.5 679.5 253.2 680.3C250.3 680.1 247.5 675.8 246.1 674.1C252.9 664.7 261.7 659.5 270.7 653.1C279.7 646.7 291.7 645.6 303.1 644.8L303.2 645Z" fill="#F2CA27"/>
<path d="M109.5 828.8C129.4 838 150.6 839.9 174.1 841.2C158.8 856 138.5 859.6 118.6 859.4C113.3 844.9 112.4 830.9 104 837.8C101.6 834.6 100.3 829.2 100.4 824.2C103.5 826.5 106.6 827.5 109.5 828.9V828.8Z" fill="#D3990A"/>
<path d="M136.6 648.9V648C137 647.8 137.6 647.1 138 647.3C138.4 647.5 139.5 648 139.8 648.7C150.9 671.2 163.9 680.3 178 698.9C156.7 696.6 139.1 685.9 123.7 672.3L136.6 648.9Z" fill="#D3960F"/>
<path d="M282.3 823.9C276.5 832.1 266.9 829.4 257.5 834.1C246.1 856.3 242.6 879.9 229.6 900.8C228.9 888.6 234.2 878.4 238 867.8C241.8 857.2 245.1 847 250.5 837C238.5 846.3 240.8 841.9 229.6 853.6C227.1 849.6 225.4 845.2 224.4 841C223.4 836.8 224.4 839.6 224.4 839C225.6 837.6 225.5 835.6 226.4 835.1C227.3 834.6 229.8 835.4 231.2 835.4C239.9 835.3 253.7 821.8 262.8 822.5L282.3 823.9Z" fill="#593E27"/>
<path d="M313.5 889.1C314.3 889.3 315.3 889.8 315.3 890.4C314.9 894.9 312 912.3 310.5 915.8C309 919.3 308.7 918.8 307.6 920.1C295.4 940.6 254.8 934.6 242.6 925.2L239.7 923C241.5 915.6 245.5 908.3 244.9 899.9C244.3 891.5 242 889.7 244.1 884.9C244.1 887.7 245 890.3 245.5 891.9C245.3 905.2 254.8 916.6 266.5 922C278.9 927.7 295.4 924.7 304 915.2C311.8 906.5 312.9 895.3 307 887.1C301.1 878.9 290 874.6 280.1 879.7C270.2 884.8 273.7 886.4 273.6 890.5C273.5 894.6 275.7 898.7 279.8 900.4C283.9 902.1 285.2 900.7 286.7 898.8C288.2 896.9 285.8 894 287 892.4C289.1 889.6 293.5 892.8 294.3 895C295.1 897.2 294.4 901.5 291.9 903.7C286.1 908.7 277.5 906.9 272.2 902C266.9 897.1 265.9 889.8 269.1 882.7C272.3 875.6 282.9 868.8 293.5 869.6C303.5 870.3 315.6 878.9 313.7 889.1H313.5Z" fill="#5C3B1C"/>
<path d="M267.1 745.7C267.4 747.8 267.4 750.3 266.2 752.7L251.5 782.2L246.7 784.2L245.7 796L246.6 798C245 799.4 243.2 801.6 240.7 801.3C237.2 787.5 232 754.9 215 754.9C193.7 754.9 184.2 765.6 166.3 774.8C175.2 765 186.2 757.7 197.5 751.9C208.8 746.1 213.9 748.4 221.3 749.8C235 752.4 238.4 768.3 242.4 779.3C251.8 771.6 258.3 762 262.9 751.3C267.5 740.6 266.1 747.4 267.2 745.7H267.1Z" fill="#CD9D29"/>
<path d="M212.4 502.1C213.8 504 214.4 506.7 214.1 510.1C215.5 513.2 215.9 515.9 215.2 518.1C214.5 519.2 214.9 521.1 216.1 522.3C231.5 537.6 254 538 271.1 524.1C288.2 510.2 281.6 507.6 281.5 497.8C287 518.4 273.3 538.1 252.4 542C240 544.3 227 540 218.8 531C210.6 522 206.9 508.6 211.3 497.8C211.3 499.3 211.5 500.8 212.4 502.1Z" fill="#CDDAE4"/>
<path d="M106.4 579.8C106.4 579.3 108.4 578.5 109.3 578.7C130 585 150.2 583.5 171.4 583.5C207.2 583.5 255.9 581.4 281.4 553.4L278.3 551C281.4 551 284.5 550.1 287.9 552.3C277.3 559.7 267.8 568.4 255.7 573.2C230.2 583.3 203.8 585.3 176.4 586.1C149 586.9 129.2 585.9 106.4 579.8Z" fill="#E1C95D"/>
<path d="M107.5 493.9C103 501.7 100.3 511.4 93.6002 517.3C85.1002 514.1 82.2002 505 87.0002 497C91.8002 489 101.4 487.3 107.5 493.9Z" fill="#1F2020"/>
<path d="M169.7 558.1C167.2 561.9 160.4 566.1 156.8 562.6C155.8 559.4 165.6 547 170.2 552.5C174.8 558 171.2 555.8 169.7 558.1Z" fill="#B26F08"/>
<path d="M107.3 559.5C105.4 562.5 100.7 559.2 99.3001 557.3C97.9001 555.4 95.3001 549.6 98.7001 548.2C102.1 546.8 109.7 555.7 107.3 559.5Z" fill="#945D15"/>
<path d="M285.2 710.4C282.3 720 276.6 728.7 272.2 737.8C269.8 733.5 278.5 719.6 279.6 712.9C281.1 712 283.3 711 285.1 710.3L285.2 710.4Z" fill="#E3D29A"/>
<path d="M343.4 668.8C341.3 668.2 315.9 671.4 323.4 665.8C321.6 670.3 333.7 666.3 343.4 668.8Z" fill="#7A5435"/>
<path d="M463.4 276.1C461.2 312.6 455.2 349.8 441.2 384.4L453.4 299.1C453.6 295.7 453.4 292.4 452.7 289.1C453.6 285.3 454.8 281.6 456.2 278C456.7 274.4 456.4 269.5 457.5 266.1C456.5 261.7 456.6 257 457.8 252L460.1 250.3L465.7 216.9C466.2 216.4 466 215.2 467.2 215.1C466.1 226.9 465.5 238.2 465.5 250.1C465.5 262 463.9 267.7 463.4 276.2V276.1Z" fill="#6D4625"/>
<path d="M402.2 566.2C397.6 572.4 382.7 590.5 374.3 584.2C403.8 557.7 412.3 514.2 417.6 476.2C418.5 469.9 419.9 464.5 420.4 458.8C420.7 455.6 422.9 451.6 424.8 448.5C426.2 461.5 424.2 473.3 424.5 486C425.3 514.7 419.1 543.5 402.3 566.1L402.2 566.2Z" fill="#6D4625"/>
<path d="M406.4 469.1C405.5 483.8 400.7 499.2 389.2 510.3C382.1 501.5 394.7 476.5 399.2 469C403.7 461.5 401.8 467.1 402.9 467C404 466.9 405.4 468.3 406.4 469.2V469.1Z" fill="#694123"/>
<path d="M449.4 261.3C448.8 268.6 443.6 305.2 428.7 295.8C430.7 289.8 436 286 438.7 280.3C445 267.2 447.1 252.9 449.2 239C450.2 239.4 451.1 240 451.3 241.1C452.2 247.1 453.5 257 449.5 261.3H449.4Z" fill="#6D4625"/>
<path d="M460.1 250.2C459.2 255.6 459.2 260.8 457.5 266.1C457.1 262.5 452.3 262.5 449.3 261.3C450 254 450.3 245.8 449.1 239C449.2 238.1 448.9 236.3 450.2 235.6C454.9 233.1 451.2 246 454.6 248.9C458 251.8 457.9 253.5 460.1 250.2Z" fill="#7B5631"/>
<path d="M437.5 271C428.5 279.1 436.4 276.1 431.2 281.5C426 286.9 428.5 281 427.2 281.3C425 281.9 425.3 285.2 423.4 286C423.4 281.8 425.2 276.8 427.4 273C429.3 269.6 434.7 271.1 437.5 271Z" fill="#7B5631"/>
<path d="M432.3 522C433.4 518.1 433.3 513.8 435.3 510.1C436 511.8 436.8 513.6 437.1 515.4C438.8 514 441.3 513.9 442.4 514.7C444.3 516.2 443.5 518.8 443.5 520.5C443.5 523 441.2 523.5 438.7 522.3C436.2 521.1 436.7 520.4 435.6 520.1C434.5 519.8 433.3 521.2 432.3 521.9V522Z" fill="#6D4625"/>
<path d="M411.2 591.9C408.8 590.9 409.8 585.8 412.1 585.1C413.1 581.6 415.2 578.4 416.4 575C419.8 576.5 421.8 580.4 419.4 584.2C417 588 414.3 590.2 411.2 591.9Z" fill="#6D4625"/>
<path d="M453.5 299C450.8 297.6 453.5 294 453 291.6C452.6 289.9 448.8 289.6 449.6 287.5C450.4 285.4 452.5 285.8 453.1 284.6C454.3 282.1 453.5 278.6 456.3 277.9L453.5 299Z" fill="#7B5631"/>
<path d="M412.1 585.2C411.5 587.2 412.1 590.1 411.2 592C410.3 593.9 409 597.4 406.8 600.1C406 594 408.5 588.4 410.3 583C410.7 583.9 411.2 584.8 412.1 585.2Z" fill="#7A5435"/>
<path d="M438.1 493.1C437.3 496.5 437.4 500.1 435.4 503C433.7 500.4 433.4 496.5 434.8 493.3C436.2 490.1 437.6 493.3 438.1 493.1Z" fill="#7A5435"/>
<path d="M445.1 456.2C442.6 454.5 444.6 458.8 442.4 459C443.8 456.1 441.7 451 446.5 449.4C446.4 451 447.1 455.8 445.1 456.1V456.2Z" fill="#6D4625"/>
<path d="M396.2 172.6C394.7 171.9 396.9 167.5 399.4 167.3C401.9 167.1 400.4 169.6 400.4 170.4C400.4 171.2 398.8 173 396.2 172.6Z" fill="#7B5631"/>
<path d="M466.4 301C464.6 298 464 291.9 467.4 290C468 293.8 466.6 297.5 466.4 301Z" fill="#7B5631"/>
<path d="M514.5 204.6C514 213 507.3 220.3 506.4 220.3C504.2 220.3 501.8 220 500.6 219C496.1 214.9 505.4 202.7 509.2 196.8C512.3 198.2 514.7 202.1 514.5 204.6Z" fill="#6D4625"/>
<path d="M499 202.7C498.8 202.1 497.6 211.6 495.9 212.7C494.2 213.8 484.4 212.7 485.7 210.5L487.6 207.4C489.7 204 485.5 196.9 488.1 192.4C488.9 190.7 500.3 205.9 499 202.6V202.7Z" fill="#6D4625"/>
<path d="M491.9 248.8C492.2 247.2 490.8 245.1 491.7 243.5C492.6 241.9 494.5 242.7 494.5 243.6C494.5 245.1 494.6 246.5 491.9 248.8Z" fill="#6D4625"/>
<path d="M307.5 920.1L313.4 889.1C314.5 888.5 313.6 886.4 315.4 886C321 897.7 317.8 914.6 307.5 920.1Z" fill="#E4E9D3"/>
<path d="M450 470.7C455.5 466.8 457.8 506.6 448.7 500.4C449.6 481.2 440.4 487.9 450 470.7Z" fill="#6D4625"/>
<path d="M338.2 797.9C340.6 802.3 342.6 808.6 338.3 812.1C337.2 806.9 335.7 802.7 331.2 802.4C328.6 797.7 330.9 793.6 330.4 790.9C331 791.3 333 792.5 333.1 791.7C333.4 790.2 333.4 788.9 334.3 787.9C331.8 792.4 336.3 794.7 338 797.9H338.2Z" fill="#7F5835"/>
<path d="M426.6 574.4C422.7 569.6 425.5 562.7 428.6 557.5C431.6 563 432.7 570.4 426.6 574.4Z" fill="#6D4625"/>
<path d="M371.8 660.6C378.6 659.1 359.3 701.3 356.5 700.3C359.5 686.2 365.3 673.5 371.8 660.6Z" fill="#6B4324"/>
<path d="M392.6 527.4C395 534 383.2 579.2 375 566.3C371.7 561 381.5 531.6 392.6 527.4Z" fill="#633E22"/>
<path d="M592.3 233.8L626.8 220C631.9 218 636.8 215.6 641.2 213.1C643.8 218.6 626.6 232.9 619.4 225.2C619.2 228.4 619.4 229.8 618.3 231.1C617.2 232.4 614 231.2 612.7 231.9C608.2 234.3 605.7 233.1 601.3 232.1C596.9 231.1 594.8 236.5 592.4 233.7L592.3 233.8Z" fill="#6D4625"/>
<path d="M585.4 237C582.8 247.2 577.6 244.7 565.7 249.8C569.3 242.6 578 239.5 585.4 237Z" fill="#6D4625"/>
<path d="M586.3 248.1C581.8 255.9 558.4 262.6 564.6 256.2C570 250.6 578.6 249 586.3 248.1Z" fill="#6D4625"/>
<path d="M215.1 518.1C211.9 513.3 211 507.7 212.4 502.1C215.5 493.7 226 490 233.5 494.4C241.5 499.1 243.4 509.9 237.9 517C232.4 524.1 222 524.6 215.1 518.1Z" fill="#1C211F"/>
<path d="M91.6 496.5C92.6 495.2 94.9 495.5 96.1 496.4C97.3 497.3 97.1 498.2 96.3 499.5C95.5 500.8 94.1 501.1 92.9 500.7C91.2 500.2 90.3 498.1 91.6 496.5Z" fill="#E5E8E4"/>
<path d="M219.3 500.5C221.4 499.3 223.4 500.3 223.8 501.9C224.2 503.5 224.2 505.4 222.7 505.8C221.2 506.2 219.1 506.3 217.9 505C216.7 503.7 217.3 501.7 219.4 500.5H219.3Z" fill="#E3E5E3"/>
</g>
<defs>
<clipPath id="clip0_1_1430">
<rect width="838" height="1140" fill="white"/>
</clipPath>
</defs>
</svg>
